<svg width="600" height="145" viewBox="0 0 600 145" fill="none" xmlns="http://www.w3.org/2000/svg">
<path fill-rule="evenodd" clip-rule="evenodd" d="M381.486 38.3652C383.873 40.4342 387.216 41.2299 390.239 40.4342C398.993 38.0469 408.063 36.7737 417.612 36.7737C427.161 36.7737 436.232 38.0469 444.986 40.4342C448.011 41.2299 451.352 40.4342 453.739 38.3652C464.084 29.2936 470.927 16.4023 472.202 1.91958C467.744 0.64637 462.97 0.00976562 458.038 0.00976562C456.446 0.00976562 454.855 0.00976562 453.263 0.168917C451.672 18.4713 436.393 32.7949 417.612 32.7949C398.832 32.7949 383.555 18.4713 381.964 0.168917C380.372 0.00976562 378.781 0.00976562 377.189 0.00976562C372.254 0.00976562 367.479 0.64637 363.023 1.91958C364.139 16.4023 370.981 29.2936 381.486 38.3652Z" fill="black"/>
<path fill-rule="evenodd" clip-rule="evenodd" d="M453.9 49.3467C451.513 47.2777 448.169 46.4819 445.146 47.2777C436.393 49.665 427.322 50.9382 417.772 50.9382C408.223 50.9382 399.152 49.665 390.398 47.2777C387.373 46.4819 384.032 47.2777 381.645 49.3467C371.3 58.4183 364.296 71.3095 363.184 85.7923C367.64 87.0655 372.414 87.7021 377.346 87.7021C378.938 87.7021 380.529 87.7021 382.121 87.5429C383.713 69.2406 398.993 54.917 417.772 54.917C436.552 54.917 451.829 69.2406 453.421 87.5429C455.012 87.7021 456.604 87.7021 458.195 87.7021C463.131 87.7021 467.905 87.0655 472.361 85.7923C471.246 71.3095 464.245 58.4183 453.9 49.3467Z" fill="black"/>
<path fill-rule="evenodd" clip-rule="evenodd" d="M501.008 131.311C498.462 134.015 495.279 135.289 491.459 135.448C487.798 135.448 484.615 134.015 481.91 131.311C479.363 128.605 477.931 125.261 477.931 121.443C477.931 117.622 479.363 114.281 481.91 111.576C484.615 108.869 487.798 107.438 491.459 107.438C495.279 107.438 498.462 108.869 501.008 111.576C503.554 114.281 504.987 117.622 504.987 121.443C504.987 125.261 503.554 128.605 501.008 131.311ZM504.987 108.393C501.963 103.618 497.348 101.231 491.459 101.231C486.207 101.231 481.592 103.141 477.772 106.959C473.952 110.621 472.042 115.555 472.042 121.282C472.042 127.171 473.952 131.946 477.772 135.767C481.592 139.746 486.207 141.495 491.459 141.495C497.348 141.495 501.963 139.107 504.987 134.333V140.699H511.194V102.027H504.987V108.393Z" fill="black"/>
<path fill-rule="evenodd" clip-rule="evenodd" d="M520.425 140.859H526.63V108.233H536.658V102.026H520.425V140.859Z" fill="black"/>
<path fill-rule="evenodd" clip-rule="evenodd" d="M556.074 102.026V82.6094H549.868V102.026H542.068V108.233H549.868V140.859H556.074V108.233H564.031V102.026H556.074Z" fill="black"/>
<path fill-rule="evenodd" clip-rule="evenodd" d="M334.536 2.55638C332.149 0.48741 328.805 -0.308346 325.783 0.48741C317.03 2.87468 307.958 4.14789 298.409 4.14789C288.86 4.14789 279.788 2.87468 271.035 0.48741C268.011 -0.308346 264.669 0.328259 262.282 2.55638C250.821 12.5829 243.502 27.384 243.502 43.9357C243.502 60.4874 250.821 75.2885 262.282 85.315C264.669 87.384 268.011 88.1797 271.035 87.384C279.788 84.9967 288.86 83.7235 298.409 83.7235C307.797 83.7235 317.03 84.9967 325.783 87.384C328.805 88.1797 332.149 87.5431 334.536 85.315C340.423 80.2222 345.198 73.8561 348.381 66.6943L326.1 66.5352C319.576 74.4927 309.549 79.7447 298.409 79.7447C278.673 79.7447 262.6 63.6704 262.6 43.9357C262.6 24.2009 278.673 8.12667 298.409 8.12667C317.03 8.12667 332.308 22.4503 334.057 40.5935H298.886C298.566 41.5484 298.25 42.6625 298.25 43.7765C298.25 44.8906 298.409 46.0047 298.886 46.9596H353.155C353.155 45.8455 353.316 44.8906 353.316 43.9357C353.316 27.384 345.993 12.7421 334.536 2.55638Z" fill="black"/>
<path fill-rule="evenodd" clip-rule="evenodd" d="M215.172 2.55638C212.785 0.48741 209.443 -0.308346 206.419 0.48741C197.666 2.87468 188.594 4.14789 179.045 4.14789C169.496 4.14789 160.424 2.87468 151.671 0.48741C148.647 -0.308346 145.305 0.328259 142.918 2.55638C131.459 12.5829 124.138 27.384 124.138 43.9357C124.138 60.4874 131.459 75.2885 142.918 85.315C145.305 87.384 148.647 88.1797 151.671 87.384C160.424 84.9967 169.496 83.7235 179.045 83.7235C188.435 83.7235 197.666 84.9967 206.419 87.384C209.443 88.1797 212.785 87.5431 215.172 85.315C221.061 80.2222 225.835 73.8561 229.018 66.6943L206.737 66.5352C200.212 74.4927 190.185 79.7447 179.045 79.7447C159.31 79.7447 143.236 63.6704 143.236 43.9357C143.236 24.2009 159.31 8.12667 179.045 8.12667C197.666 8.12667 212.944 22.4503 214.695 40.5935H179.522C179.204 41.5484 178.886 42.6625 178.886 43.7765C178.886 44.8906 179.045 46.0047 179.522 46.9596H233.793C233.793 45.8455 233.952 44.8906 233.952 43.9357C233.952 27.384 226.631 12.7421 215.172 2.55638Z" fill="black"/>
<path fill-rule="evenodd" clip-rule="evenodd" d="M100.106 101.23C98.5146 101.23 97.0822 101.071 95.4907 101.071C93.8992 101.071 92.4668 101.071 90.8753 101.23H90.557H90.7162C90.7162 120.965 74.6419 137.039 54.9072 137.039C35.1724 137.039 19.0981 120.965 19.0981 101.23H19.2573H18.939C17.3475 101.071 15.9151 101.071 14.3236 101.071C12.7321 101.071 11.2997 101.23 9.70822 101.23C6.36605 101.548 3.18302 102.026 0.318302 102.821H0C0.477454 118.577 7.63926 132.742 18.7798 142.45C21.1671 144.519 24.5093 145.315 27.5332 144.519C36.2865 142.132 45.3581 140.859 54.9072 140.859C64.4562 140.859 73.5279 142.132 82.2812 144.519C85.305 145.315 88.6472 144.519 91.0345 142.45C102.175 132.742 109.337 118.577 109.814 102.821H109.496C106.631 102.026 103.448 101.548 100.106 101.23Z" fill="black"/>
<path fill-rule="evenodd" clip-rule="evenodd" d="M54.9074 79.7447C35.1727 79.7447 19.0984 63.6704 19.0984 43.9357C19.0984 24.2009 35.1727 8.12664 54.9074 8.12664C74.6422 8.12664 90.7164 24.2009 90.7164 43.9357C90.7164 63.6704 74.6422 79.7447 54.9074 79.7447ZM91.0347 2.3972C88.6475 0.328231 85.3053 -0.467526 82.2814 0.32823C73.5281 2.7155 64.4565 3.98871 54.9074 3.98871C45.3583 3.98871 36.2867 2.7155 27.5334 0.32823C24.5095 -0.467526 21.1674 0.169079 18.7801 2.3972C7.3212 12.4237 0.000244141 27.2248 0.000244141 43.7765C0.000244141 60.3282 7.3212 75.1293 18.7801 85.1558C21.1674 87.2248 24.5095 88.0205 27.5334 87.2248C36.2867 84.8375 45.3583 83.5643 54.9074 83.5643C64.2973 83.5643 73.5281 84.8375 82.2814 87.2248C85.3053 88.0205 88.6475 87.3839 91.0347 85.1558C102.494 75.1293 109.815 60.3282 109.815 43.7765C109.815 27.2248 102.494 12.5829 91.0347 2.3972Z" fill="black"/>
<path fill-rule="evenodd" clip-rule="evenodd" d="M571.192 102.025V124.466H592.998V134.494H571.192V140.699H599.203V118.26H577.401V108.234H599.203V102.025H571.192Z" fill="black"/>
</svg>
